<svg xmlns="http://www.w3.org/2000/svg" width="80" height="80" viewBox="0 0 80 80"><defs><style>.a{fill:#e3dfd7;}.b{fill:#141413;}</style></defs><g transform="translate(1 1)"><circle class="a" cx="40" cy="40" r="40" transform="translate(-1 -1)"/><g transform="translate(6.996 6.668)"><rect class="b" width="1.613" height="2.419" transform="translate(45.714 42.339)"/><rect class="b" width="1.613" height="2.418" transform="translate(45.714 37.501)"/><rect class="b" width="1.613" height="2.418" transform="translate(45.714 32.662)"/><rect class="b" width="1.613" height="2.419" transform="translate(45.714 27.822)"/><rect class="b" width="1.613" height="2.419" transform="translate(45.714 22.983)"/><path class="b" d="M56.4,21.772a4.038,4.038,0,0,1-4.032-4.032v-.806H12.044v.806a4.038,4.038,0,0,1-4.032,4.032H7.205V45.158h.806a4.038,4.038,0,0,1,4.032,4.033V50H52.366v-.806A4.038,4.038,0,0,1,56.4,45.158H57.2V21.772ZM55.592,43.6a5.658,5.658,0,0,0-4.781,4.782H13.6A5.658,5.658,0,0,0,8.818,43.6V23.327A5.657,5.657,0,0,0,13.6,18.546H50.811a5.657,5.657,0,0,0,4.781,4.781Z" transform="translate(-0.203 -0.602)"/><rect class="b" width="24.194" height="1.613" transform="translate(15.066 24.597)"/><rect class="b" width="7.258" height="1.613" transform="translate(15.066 41.534)"/><rect class="b" width="7.258" height="1.613" transform="translate(24.745 41.534)"/><rect class="b" width="24.194" height="1.613" transform="translate(15.066 29.437)"/><rect class="b" width="24.194" height="1.613" transform="translate(15.066 34.274)"/></g></g></svg>