<svg xmlns="http://www.w3.org/2000/svg" width="30" height="30" viewBox="0 0 30 30"><defs><style>.a{fill:#8db92e;}.b{fill:#fff;stroke:#fff;stroke-width:0.5px;}</style></defs><g transform="translate(-997 -2092)"><circle class="a" cx="15" cy="15" r="15" transform="translate(997 2092)"/><g transform="translate(992.55 2090.538)"><g transform="translate(11.45 6.462)"><path class="b" d="M25.2,10.794h1.407a10.014,10.014,0,0,0,3.07-1.262,1.8,1.8,0,0,0-2.543-2.543A9.58,9.58,0,0,0,25.908,9.95a9.581,9.581,0,0,0-1.231-2.962,1.8,1.8,0,1,0-2.543,2.543A10.021,10.021,0,0,0,25.2,10.794ZM27.59,7.44a1.16,1.16,0,1,1,1.64,1.64,9.721,9.721,0,0,1-2.718,1.078A9.719,9.719,0,0,1,27.59,7.44Zm-5,0a1.16,1.16,0,0,1,1.64,0A9.727,9.727,0,0,1,25.3,10.158,9.719,9.719,0,0,1,22.586,9.08a1.16,1.16,0,0,1,0-1.64Z" transform="translate(-17.551 -6.462)"/><path class="b" d="M20.963,18.91H11.45v3.6h6.9V33.3H13.075V23.146h-.639V33.939H26.879V23.146H26.24V33.3H20.963V22.507h6.9v-3.6Zm-.639.639v2.319H18.991V19.549Zm-7.888,2.319h-.347V19.549h6.263v2.319H12.436Zm7.888,1.278V33.3H18.991V22.507h1.334Zm6.9-1.278H20.963V19.549h6.263Z" transform="translate(-11.45 -13.94)"/></g></g></g></svg>