<svg xmlns="http://www.w3.org/2000/svg" width="80" height="80" viewBox="0 0 80 80"><defs><style>.a{fill:#e3dfd7;}.b{fill:#141413;}</style></defs><g transform="translate(18 18)"><circle class="a" cx="40" cy="40" r="40" transform="translate(-18 -18)"/><g transform="translate(-9.133 -9.199)"><g transform="translate(5.867 15.2)"><path class="b" d="M5.867,15.2V47.343h50V15.2ZM54.336,45.812H7.4V16.731H54.335V45.812Z" transform="translate(-5.867 -15.2)"/><path class="b" d="M25.365,40.848a9.226,9.226,0,0,0,5.946-2.168,9.269,9.269,0,1,0,0-14.2,9.266,9.266,0,1,0-5.946,16.371ZM31.31,26.634a7.719,7.719,0,0,1,0,9.892,7.719,7.719,0,0,1,0-9.892Zm5.946-2.793A7.739,7.739,0,1,1,32.4,37.6a9.224,9.224,0,0,0,0-12.034A7.694,7.694,0,0,1,37.257,23.841Zm-11.892,0a7.694,7.694,0,0,1,4.856,1.722,9.224,9.224,0,0,0,0,12.034,7.736,7.736,0,1,1-4.856-13.756Z" transform="translate(-6.311 -15.508)"/></g></g></g></svg>