<svg xmlns="http://www.w3.org/2000/svg" width="30" height="30" viewBox="0 0 30 30"><defs><style>.a{fill:#8db92e;}.b{fill:#fff;stroke:#fff;stroke-width:0.5px;}</style></defs><g transform="translate(-997 -2092)"><circle class="a" cx="15" cy="15" r="15" transform="translate(997 2092)"/><g transform="translate(996.133 2084.8)"><g transform="translate(5.867 15.2)"><rect class="b" width="9.457" height="0.622" transform="translate(1.868 8.793)"/><path class="b" d="M5.867,15.2V28.258H26.18V15.2ZM25.558,27.636H6.488V15.822H25.558V27.636Z" transform="translate(-5.867 -15.2)"/><path class="b" d="M11.688,28.56h1.269a1.233,1.233,0,0,0,1.231-1.231V26.06a1.232,1.232,0,0,0-1.231-1.231H11.688a1.232,1.232,0,0,0-1.231,1.231v1.269A1.233,1.233,0,0,0,11.688,28.56Zm-.609-2.5a.61.61,0,0,1,.609-.609h1.269a.61.61,0,0,1,.609.609v1.269a.61.61,0,0,1-.609.609H11.688a.61.61,0,0,1-.609-.609Z" transform="translate(-8.673 -21.087)"/><path class="b" d="M42.648,39.944a1.68,1.68,0,0,0,.968-.307,1.7,1.7,0,1,0,0-2.776,1.694,1.694,0,1,0-.968,3.083Zm1.413-2.627a1.061,1.061,0,0,1,.523-.141,1.074,1.074,0,0,1,0,2.148,1.061,1.061,0,0,1-.523-.141,1.683,1.683,0,0,0,0-1.865Zm-.445.476a1.041,1.041,0,0,1,0,.913,1.041,1.041,0,0,1,0-.913Zm-.968-.618a1.061,1.061,0,0,1,.523.141,1.682,1.682,0,0,0,0,1.864,1.061,1.061,0,0,1-.523.141,1.073,1.073,0,1,1,0-2.147Z" transform="translate(-27.317 -28.255)"/></g></g></g></svg>