<svg xmlns="http://www.w3.org/2000/svg" width="18" height="18" viewBox="0 0 18 18"><defs><style>.a{fill:#8db92e;}.b,.c{fill:#fff;}.c{stroke:#fff;stroke-width:0.1px;}</style></defs><g transform="translate(0.476)"><circle class="a" cx="9" cy="9" r="9" transform="translate(-0.476)"/><g transform="translate(-3.342 -10.057)"><rect class="b" width="5.587" height="0.367" transform="translate(6.971 20.395)"/><path class="c" d="M5.867,15.2v7.714h12V15.2ZM17.5,22.547H6.234v-6.98H17.5Z" transform="translate(0 0)"/><path class="b" d="M11.184,27.033h.749a.728.728,0,0,0,.727-.727v-.75a.728.728,0,0,0-.727-.727h-.749a.728.728,0,0,0-.727.727v.75A.728.728,0,0,0,11.184,27.033Zm-.36-1.477a.36.36,0,0,1,.36-.36h.749a.36.36,0,0,1,.36.36v.75a.361.361,0,0,1-.36.36h-.749a.361.361,0,0,1-.36-.36Z" transform="translate(-3.536 -7.418)"/><path class="b" d="M41.954,38.557a.994.994,0,0,0,.572-.181,1,1,0,1,0,0-1.64,1,1,0,1,0-.572,1.822ZM42.789,37a.625.625,0,0,1,.309-.084.634.634,0,0,1,0,1.269.628.628,0,0,1-.309-.084.994.994,0,0,0,0-1.1Zm-.263.281a.615.615,0,0,1,0,.539.613.613,0,0,1,0-.539Zm-.572-.365a.625.625,0,0,1,.309.084.994.994,0,0,0,0,1.1.627.627,0,0,1-.309.084.634.634,0,0,1,0-1.269Z" transform="translate(-27.03 -16.451)"/></g></g></svg>