<svg xmlns="http://www.w3.org/2000/svg" width="50" height="41.012" viewBox="0 0 50 41.012"><defs><style>.a{fill:none;}.b{fill:#231f20;}.c{fill:#ff5f00;}.d{fill:#eb001b;}.e{fill:#f79e1b;}</style></defs><g transform="translate(0 0)"><rect class="a" width="50" height="41.012"/><path class="b" d="M26.353,96.424V94.38a1.213,1.213,0,0,0-1.126-1.294,1.239,1.239,0,0,0-.155,0,1.26,1.26,0,0,0-1.144.579,1.2,1.2,0,0,0-1.076-.579,1.076,1.076,0,0,0-.954.484v-.4H21.19v3.256h.715V94.632a.762.762,0,0,1,.8-.865c.47,0,.708.307.708.858v1.812h.715V94.632a.765.765,0,0,1,.8-.865c.484,0,.715.307.715.858v1.812Zm10.582-3.256H35.771V92.18h-.715v.988h-.647v.647h.661v1.5c0,.756.293,1.206,1.131,1.206a1.662,1.662,0,0,0,.886-.252l-.2-.606a1.305,1.305,0,0,1-.627.184c-.341,0-.47-.218-.47-.545V93.815h1.158Zm6.042-.082a.961.961,0,0,0-.858.477v-.4h-.7v3.256h.708V94.6c0-.538.232-.838.681-.838a1.152,1.152,0,0,1,.443.082l.218-.681a1.513,1.513,0,0,0-.5-.089Zm-9.135.341a2.435,2.435,0,0,0-1.328-.341c-.824,0-1.362.4-1.362,1.042,0,.531.4.858,1.124.96l.341.048c.388.054.572.157.572.341,0,.252-.259.4-.743.4a1.734,1.734,0,0,1-1.083-.341l-.341.552a2.35,2.35,0,0,0,1.41.422c.94,0,1.485-.443,1.485-1.063s-.429-.872-1.138-.974l-.341-.048c-.307-.041-.552-.1-.552-.32s.232-.381.62-.381A2.1,2.1,0,0,1,33.53,94Zm18.975-.341a.961.961,0,0,0-.858.477v-.4h-.7v3.256h.708V94.6c0-.538.232-.838.681-.838a1.152,1.152,0,0,1,.443.082l.218-.681a1.513,1.513,0,0,0-.5-.089Zm-9.128,1.7a1.645,1.645,0,0,0,1.583,1.7c.051,0,.1,0,.154,0A1.7,1.7,0,0,0,46.6,96.1l-.341-.572a1.431,1.431,0,0,1-.852.293,1.046,1.046,0,0,1,0-2.084,1.431,1.431,0,0,1,.852.293l.341-.572a1.7,1.7,0,0,0-1.172-.388,1.645,1.645,0,0,0-1.736,1.549c0,.051,0,.1,0,.154Zm6.635,0V93.168h-.708v.4a1.237,1.237,0,0,0-1.022-.477,1.7,1.7,0,1,0,0,3.406,1.237,1.237,0,0,0,1.022-.477v.4h.708Zm-2.636,0a.978.978,0,1,1,0,.077C47.686,94.841,47.687,94.815,47.689,94.789Zm-8.549-1.7a1.7,1.7,0,0,0,.048,3.406h0a1.977,1.977,0,0,0,1.352-.443l-.341-.525a1.551,1.551,0,0,1-.947.341.9.9,0,0,1-.974-.8H40.7V94.8a1.548,1.548,0,0,0-1.546-1.7Zm0,.634a.807.807,0,0,1,.824.79h-1.7a.838.838,0,0,1,.865-.79ZM56.888,94.8V91.86h-.681v1.7a1.237,1.237,0,0,0-1.022-.477,1.7,1.7,0,0,0,0,3.406,1.237,1.237,0,0,0,1.022-.477v.4h.681Zm1.182,1.155a.337.337,0,0,1,.129.024.325.325,0,0,1,.177.17.318.318,0,0,1,0,.252.325.325,0,0,1-.177.17.32.32,0,0,1-.129.027.341.341,0,0,1-.307-.2.321.321,0,0,1,0-.252.331.331,0,0,1,.317-.194Zm0,.576a.24.24,0,0,0,.1-.02.255.255,0,0,0,.078-.054.252.252,0,0,0,0-.341.255.255,0,0,0-.078-.054.246.246,0,0,0-.1-.02.259.259,0,0,0-.1.02.249.249,0,0,0-.082.054.252.252,0,0,0,0,.341.262.262,0,0,0,.191.075Zm.02-.405a.136.136,0,0,1,.089.027.085.085,0,0,1,.031.072.083.083,0,0,1-.024.061.119.119,0,0,1-.072.031l.1.112h-.078l-.092-.112h-.031v.112h-.065v-.3Zm-.075.058v.082h.075a.07.07,0,0,0,.041,0,.035.035,0,0,0,0-.031.035.035,0,0,0,0-.031.07.07,0,0,0-.041,0ZM54.269,94.8a.978.978,0,1,1,0,.077C54.267,94.847,54.267,94.822,54.269,94.8Zm-23.92,0V93.168H29.64v.4a1.237,1.237,0,0,0-1.022-.477,1.7,1.7,0,1,0,0,3.406,1.237,1.237,0,0,0,1.022-.477v.4h.708Zm-2.636,0a.909.909,0,1,1-.009.084c0-.028,0-.056,0-.084Z" transform="translate(-13.973 -60.573)"/><g transform="translate(5.161 5.16)"><rect class="c" width="10.729" height="19.281" transform="translate(14.474 2.623)"/><path class="d" d="M30.309,27.417a12.241,12.241,0,0,1,4.683-9.642,12.262,12.262,0,1,0,0,19.281A12.241,12.241,0,0,1,30.309,27.417Z" transform="translate(-15.154 -15.152)"/><path class="e" d="M93.24,27.415A12.262,12.262,0,0,1,73.4,37.054a12.262,12.262,0,0,0,0-19.281,12.262,12.262,0,0,1,19.84,9.639Z" transform="translate(-53.561 -15.15)"/><path class="e" d="M127.735,72.537v-.4h.16V72.06h-.405v.082h.174v.4Zm.787,0V72.06H128.4l-.143.341-.143-.341H128v.477h.089v-.358l.133.31h.092l.133-.31v.361Z" transform="translate(-89.228 -52.676)"/></g></g></svg>