<svg xmlns="http://www.w3.org/2000/svg" width="18" height="18" viewBox="0 0 18 18"><defs><style>.a{fill:#8db92e;}.b{fill:#fff;stroke:#fff;stroke-width:0.2px;}</style></defs><g transform="translate(0.476)"><circle class="a" cx="9" cy="9" r="9" transform="translate(-0.476)"/><g transform="translate(-7.926 -3.462)"><path class="b" d="M23.8,9.061h.857a6.152,6.152,0,0,0,1.87-.757,1.068,1.068,0,0,0,0-1.526,1.108,1.108,0,0,0-1.549,0,5.7,5.7,0,0,0-.75,1.777,5.7,5.7,0,0,0-.75-1.777,1.107,1.107,0,0,0-1.549,0,1.067,1.067,0,0,0,0,1.526A6.156,6.156,0,0,0,23.8,9.061Zm1.453-2.012a.714.714,0,0,1,1,0,.69.69,0,0,1,0,.984A5.974,5.974,0,0,1,24.6,8.68,5.782,5.782,0,0,1,25.252,7.049Zm-3.049,0a.714.714,0,0,1,1,0,5.787,5.787,0,0,1,.656,1.631A5.972,5.972,0,0,1,22.2,8.033a.688.688,0,0,1,0-.984Z" transform="translate(-7.686)"/><path class="b" d="M17.245,18.91h-5.8v2.158h4.2v6.476H12.44V21.452h-.389v6.476h8.8V21.452H20.46v6.093H17.245V21.068h4.2V18.91Zm-.389.383v1.392h-.812V19.293Zm-4.805,1.391h-.212V19.293h3.815v1.392h-3.6Zm4.805.767v6.093h-.812V21.068h.812Zm4.2-.767H17.245V19.293h3.815Z" transform="translate(0 -9.466)"/></g></g></svg>