<svg xmlns="http://www.w3.org/2000/svg" width="19.987" height="20" viewBox="0 0 19.987 20"><defs><style>.a{fill:#141413;}</style></defs><path class="a" d="M11.79,10.018l7.87-7.87a1.292,1.292,0,0,0,0-1.772,1.292,1.292,0,0,0-1.772,0l-7.87,7.87L2.149.377a1.292,1.292,0,0,0-1.772,0,1.292,1.292,0,0,0,0,1.772l7.87,7.87-7.87,7.87a1.292,1.292,0,0,0,0,1.772,1.221,1.221,0,0,0,.886.365,1.221,1.221,0,0,0,.886-.365l7.87-7.87,7.87,7.87a1.258,1.258,0,0,0,1.772,0,1.292,1.292,0,0,0,0-1.772Zm0,0" transform="translate(-0.025 -0.025)"/></svg>