<svg xmlns="http://www.w3.org/2000/svg" width="90" height="90" viewBox="0 0 90 90"><defs><style>.a{fill:#d6d0c9;}.b{fill:#fff;}</style></defs><g transform="translate(-153 -291.559)"><path class="a" d="M45,0A45,45,0,1,1,0,45,45,45,0,0,1,45,0Z" transform="translate(153 291.559)"/><g transform="translate(166.2 304.889)"><path class="b" d="M44.64,29.75l-1.6,1.6V46.32h1.6Z"/><path class="b" d="M23.6,49.8a4.6,4.6,0,0,1-9.2,0V9.6H43v4.17l1.6-1.6V8H12.8V49.8A6.21,6.21,0,0,0,19,56H47.08a6.21,6.21,0,0,0,6.2-6.2V47.92H23.6Zm1.6-.28H51.68v.28a4.6,4.6,0,0,1-4.6,4.6H23.15a6.19,6.19,0,0,0,2.05-4.6Z"/><path class="b" d="M30.13,42H23.6V35.47L51.4,7.67l6.53,6.53ZM25.2,40.4h4.27l26.2-26.2L51.4,9.93,25.2,36.13Z"/><rect class="b" width="1.6" height="9.24" transform="translate(44.874 14.203) rotate(-45)"/></g></g></svg>