<svg xmlns="http://www.w3.org/2000/svg" width="96.034" height="85.756" viewBox="0 0 96.034 85.756"><defs><style>.a{fill:#f38b00;}</style></defs><g transform="translate(-10.566 -12.125)"><path class="a" d="M91.609,45.283A39.525,39.525,0,1,1,79.374,25.378l2.44-2.44A42.649,42.649,0,1,0,94.441,42.453Z" transform="translate(0 0)"/><path class="a" d="M88.073,13.984l-1.219-1.221L75.036,24.579l-2.44,2.44L44.171,55.448,29.514,40.791,18.581,51.72,44.43,77.567,81.185,40.813l2.686-2.686L97.324,24.674V23.96C97.32,23.23,97.32,23.23,88.073,13.984Zm-43.645,58.7L23.463,51.72l6.051-6.049L44.171,60.33,74.89,29.612l2.462-2.462,9.5-9.5c1.67,1.668,4.649,4.649,6.3,6.31L82.322,34.794l-2.582,2.582Z" transform="translate(9.276 0.738)"/></g></svg>