<svg xmlns="http://www.w3.org/2000/svg" width="20" height="24.149" viewBox="0 0 20 24.149"><defs><style>.a{fill:#8db92e;stroke:#8db92e;}</style></defs><g transform="translate(-10.95 -5.962)"><g transform="translate(11.45 6.462)"><path class="a" d="M25.771,11.476H27.4a11.591,11.591,0,0,0,3.554-1.46,2.082,2.082,0,0,0-2.944-2.944A11.089,11.089,0,0,0,26.585,10.5a11.089,11.089,0,0,0-1.424-3.428,2.081,2.081,0,1,0-2.944,2.944A11.6,11.6,0,0,0,25.771,11.476Zm2.761-3.882a1.343,1.343,0,0,1,1.9,1.9,11.252,11.252,0,0,1-3.146,1.247A11.25,11.25,0,0,1,28.533,7.594Zm-5.792,0a1.342,1.342,0,0,1,1.9,0,11.258,11.258,0,0,1,1.247,3.146A11.25,11.25,0,0,1,22.74,9.492a1.342,1.342,0,0,1,0-1.9Z" transform="translate(-16.913 -6.462)"/><path class="a" d="M22.461,18.91H11.45v4.163h7.989V35.567H13.331V23.813h-.739V36.306H29.308V23.813h-.739V35.567H22.461V23.073H30.45V18.91Zm-.739.739v2.685H20.178V19.649Zm-9.13,2.684h-.4V19.649h7.249v2.685H12.592Zm9.13,1.479V35.567H20.178V23.073h1.544Zm7.989-1.479H22.461V19.649H29.71Z" transform="translate(-11.45 -13.157)"/></g></g></svg>