<svg xmlns="http://www.w3.org/2000/svg" width="60" height="60" viewBox="0 0 60 60"><defs><style>.a{fill:#77ba21;}</style></defs><g transform="translate(-315.071 -485.656)"><path class="a" d="M334.533,492.2c-.327-.017-.646-.05-.976-.05s-.64.033-.959.05v3.061h1.936Z" transform="translate(11.516 4.266)"/><path class="a" d="M332.6,516.557c.32.015.635.048.959.048s.65-.033.976-.05v-3.062H332.6Z" transform="translate(11.516 18.291)"/><path class="a" d="M324.577,496.527l2.167,2.166,1.369-1.369-2.166-2.166Q325.229,495.807,324.577,496.527Z" transform="translate(6.246 6.244)"/><path class="a" d="M339.649,511.6l2.158,2.158a19.075,19.075,0,0,0,1.369-1.37l-2.156-2.158Z" transform="translate(16.15 16.147)"/><path class="a" d="M321.563,504.144c0,.326.033.645.05.968h3.071v-1.935h-3.071C321.6,503.5,321.563,503.817,321.563,504.144Z" transform="translate(4.266 11.512)"/><path class="a" d="M342.914,503.176v1.935h3.054c.015-.323.048-.641.048-.968s-.033-.645-.048-.968Z" transform="translate(18.295 11.512)"/><path class="a" d="M324.578,512.4q.651.718,1.369,1.367l2.166-2.164-1.369-1.37Z" transform="translate(6.247 16.147)"/><path class="a" d="M339.649,497.321l1.37,1.369,2.158-2.158q-.651-.718-1.369-1.369Z" transform="translate(16.15 6.247)"/><path class="a" d="M345.071,485.656a30,30,0,1,0,30,30A30.033,30.033,0,0,0,345.071,485.656Zm0,58.065a28.065,28.065,0,1,1,28.065-28.064A28.1,28.1,0,0,1,345.071,543.721Z" transform="translate(0 0)"/><path class="a" d="M342.341,489.813a23.111,23.111,0,1,0,23.11,23.112A23.137,23.137,0,0,0,342.341,489.813Zm15.621,37.358q-.654.716-1.369,1.369a21.058,21.058,0,0,1-13.277,5.511c-.327.015-.646.05-.976.05s-.64-.035-.959-.048a21.057,21.057,0,0,1-13.287-5.5q-.716-.654-1.37-1.369a21.056,21.056,0,0,1-5.513-13.287c-.015-.323-.048-.641-.048-.968s.033-.645.048-.968a21.065,21.065,0,0,1,5.513-13.287q.654-.716,1.37-1.367a21.057,21.057,0,0,1,13.287-5.5c.32-.015.635-.05.959-.05s.65.035.976.05a21.068,21.068,0,0,1,13.277,5.512q.716.654,1.369,1.37a21.06,21.06,0,0,1,5.5,13.277c.015.323.05.641.05.968s-.035.645-.05.968A21.068,21.068,0,0,1,357.963,527.171Z" transform="translate(2.732 2.732)"/><path class="a" d="M330.243,499.454l-1.369,1.369,6.73,6.73h10.082v-1.935h-9.279Z" transform="translate(9.07 9.067)"/></g></svg>