<svg xmlns="http://www.w3.org/2000/svg" width="55.125" height="49.332" viewBox="0 0 55.125 49.332"><defs><style>.a{fill:#8db92e;stroke:#8db92e;}</style></defs><g transform="translate(-10.066 -11.625)"><path class="a" d="M56.241,30.813a22.276,22.276,0,1,1-6.9-11.219l1.375-1.375a24.037,24.037,0,1,0,7.116,11Z" transform="translate(0 0)"/><path class="a" d="M57.747,13.451l-.687-.688L50.4,19.422,49.024,20.8,33,36.82,24.743,28.56l-6.162,6.16L33.15,49.287,53.864,28.572l1.514-1.514,7.582-7.582v-.4C62.958,18.662,62.958,18.662,57.747,13.451Zm-24.6,33.084L21.333,34.719l3.411-3.409L33,39.572,50.316,22.259,51.7,20.872l5.356-5.356c.941.94,2.62,2.62,3.553,3.556l-6.107,6.107L53.05,26.635Z" transform="translate(1.73 0.138)"/></g></svg>