<svg xmlns="http://www.w3.org/2000/svg" width="90" height="90" viewBox="0 0 90 90"><defs><style>.a{fill:#d6d0c9;}.b{fill:#141413;}</style></defs><g transform="translate(-153 -291.558)"><path class="a" d="M45,0A45,45,0,1,1,0,45,45,45,0,0,1,45,0Z" transform="translate(153 291.558)"/><g transform="translate(166.133 304.358)"><path class="b" d="M5.867,15.2V48.8H58.134V15.2Zm50.667,32H7.466V16.8H56.533V47.2Z"/><path class="b" d="M25.785,41.689A9.644,9.644,0,0,0,32,39.423a9.69,9.69,0,1,0,0-14.847,9.686,9.686,0,1,0-6.216,17.113ZM32,26.83a8.069,8.069,0,0,1,0,10.34,8.069,8.069,0,0,1,0-10.34Zm6.216-2.92A8.09,8.09,0,1,1,33.14,38.29a9.643,9.643,0,0,0,0-12.58A8.043,8.043,0,0,1,38.216,23.91Zm-12.431,0a8.043,8.043,0,0,1,5.076,1.8,9.643,9.643,0,0,0,0,12.58,8.087,8.087,0,1,1-5.076-14.38Z"/></g></g></svg>