<svg xmlns="http://www.w3.org/2000/svg" width="50" height="50" viewBox="0 0 50 50"><defs><style>.a{fill:none;}.b{fill:#141413;}</style></defs><g transform="translate(-234.125 -197.882)"><rect class="a" width="50" height="50" transform="translate(234.125 197.882)"/><g transform="translate(228.193 193.295)"><path class="b" d="M44.514,29.75,43.04,31.224V45.019h1.474Z" transform="translate(-2.374 -1.733)"/><path class="b" d="M22.752,46.519a4.239,4.239,0,1,1-8.478,0V9.474H40.629v3.843L42.1,11.843V8H12.8V46.519a5.723,5.723,0,0,0,5.713,5.713H44.389A5.723,5.723,0,0,0,50.1,46.519V44.786H22.752Zm1.474-.258h24.4v.258a4.239,4.239,0,0,1-4.239,4.239H22.338a5.7,5.7,0,0,0,1.889-4.239Z" transform="translate(0 -0.026)"/><path class="b" d="M29.617,39.305H23.6V33.288L49.218,7.67l6.017,6.017Zm-4.543-1.474h3.935L53.153,13.687,49.218,9.753,25.074,33.9Z" transform="translate(-0.848)"/><rect class="b" width="1.474" height="8.515" transform="translate(42.356 13.69) rotate(-45)"/></g></g></svg>