<svg xmlns="http://www.w3.org/2000/svg" width="21.003" height="20.999" viewBox="0 0 21.003 20.999"><defs><style>.a{fill:#ff671b;stroke:#ff671b;}</style></defs><path class="a" d="M9.988.022A10.015,10.015,0,0,0,8.915.08a9.439,9.439,0,0,0-.968.155L7.762.275A10,10,0,0,0,2.829,3.037q-.188.192-.367.4a10.012,10.012,0,0,0,14.686,13.6q.188-.192.367-.4A10.011,10.011,0,0,0,9.988.022ZM3.274,3.538c.053-.055.107-.107.161-.16s.124-.122.187-.182.113-.1.17-.153.128-.114.195-.169.118-.1.177-.143.133-.107.2-.158.122-.09.185-.133.138-.1.209-.146.127-.084.191-.125.143-.091.216-.133l.2-.115q.111-.063.223-.123l.2-.1c.076-.038.153-.075.23-.112s.136-.063.2-.093l.237-.1c.069-.028.138-.056.208-.083s.163-.059.244-.088.139-.049.21-.072.167-.051.251-.076.14-.041.211-.06l.081-.02A8.28,8.28,0,0,0,5.531,4.451a11.209,11.209,0,0,1-2.287-.88Zm-.48.537A11.6,11.6,0,0,0,5.327,5.083,17.317,17.317,0,0,0,4.653,9.7h-4A9.324,9.324,0,0,1,2.794,4.075Zm0,11.917A9.325,9.325,0,0,1,.652,10.367h4a17.315,17.315,0,0,0,.674,4.617A11.6,11.6,0,0,0,2.794,15.992ZM7.58,19.061c-.067-.017-.137-.039-.207-.059-.084-.025-.169-.049-.253-.076s-.14-.047-.209-.071-.164-.057-.245-.088-.138-.054-.207-.082l-.239-.1q-.1-.045-.2-.093l-.234-.113c-.067-.033-.133-.067-.2-.1s-.15-.082-.225-.124-.13-.075-.195-.114-.146-.089-.218-.136-.127-.081-.189-.123-.141-.1-.211-.148-.122-.087-.182-.133-.137-.106-.2-.16-.118-.094-.176-.142-.131-.113-.2-.171-.114-.1-.169-.152-.125-.121-.188-.182-.108-.105-.161-.16L3.242,16.5a11.2,11.2,0,0,1,2.287-.88,8.282,8.282,0,0,0,2.133,3.463Zm2.074.29c-1.428-.2-2.68-1.693-3.467-3.894a16.959,16.959,0,0,1,3.467-.408v4.3Zm0-4.97a17.574,17.574,0,0,0-3.677.439,16.7,16.7,0,0,1-.657-4.453H9.654Zm0-4.682H5.32a16.691,16.691,0,0,1,.657-4.453,17.58,17.58,0,0,0,3.677.439Zm0-4.682A16.941,16.941,0,0,1,6.187,4.61C6.975,2.409,8.226.919,9.654.716v4.3Zm7.528-.943A9.325,9.325,0,0,1,19.325,9.7h-4a17.315,17.315,0,0,0-.674-4.617A11.607,11.607,0,0,0,17.182,4.075ZM12.393,1.006c.07.017.14.039.209.06.084.025.169.049.253.076s.14.047.209.071.164.057.245.088.138.054.207.082l.239.1q.1.045.2.093l.234.113c.067.033.133.067.2.1s.15.082.225.124.13.075.195.114.146.089.218.136.127.081.189.123.141.1.211.148.122.088.183.133.136.105.2.16.118.093.176.142.131.113.2.171.114.1.169.152.125.121.188.182.108.105.161.16l.029.031a11.2,11.2,0,0,1-2.287.88A8.282,8.282,0,0,0,12.312.986ZM10.322.716C11.75.919,13,2.409,13.789,4.61a16.959,16.959,0,0,1-3.467.408V.716Zm0,4.97A17.574,17.574,0,0,0,14,5.247,16.7,16.7,0,0,1,14.656,9.7H10.322Zm0,4.682h4.334A16.691,16.691,0,0,1,14,14.82h0a17.58,17.58,0,0,0-3.677-.439Zm0,8.984v-4.3a16.941,16.941,0,0,1,3.467.408C13,17.658,11.75,19.148,10.322,19.351Zm6.38-2.822c-.053.054-.107.107-.161.16s-.124.123-.188.182-.112.1-.169.152-.129.115-.2.17-.118.1-.177.143-.133.107-.2.158-.122.09-.185.133-.138.1-.209.146-.127.084-.191.125-.143.091-.216.133l-.2.115q-.111.063-.223.123l-.2.1c-.076.038-.153.075-.23.112s-.136.063-.2.093l-.237.1c-.069.028-.138.056-.207.082s-.163.06-.245.088-.139.049-.209.071-.167.052-.252.076c-.07.021-.14.041-.21.06l-.081.02a8.28,8.28,0,0,0,2.133-3.463,11.209,11.209,0,0,1,2.287.88Zm.48-.537a11.6,11.6,0,0,0-2.533-1.008,17.317,17.317,0,0,0,.674-4.617h4A9.324,9.324,0,0,1,17.182,15.992Z" transform="translate(0.504 0.478)"/></svg>