<svg xmlns="http://www.w3.org/2000/svg" width="50" height="50" viewBox="0 0 50 50"><defs><style>.a{fill:#141413;}</style></defs><g transform="translate(-8 -8)"><g transform="translate(16.333 16.333)"><path class="a" d="M31,31H16V16H31ZM17.667,29.333H29.333V17.667H17.667Z" transform="translate(-16 -16)"/></g><g transform="translate(34.668 34.668)"><path class="a" d="M48.6,48.6h-15v-15h15ZM35.267,46.933H46.933V35.267H35.267Z" transform="translate(-33.601 -33.601)"/></g><g transform="translate(16.333 34.668)"><rect class="a" width="15" height="1.667"/></g><g transform="translate(16.333 38.834)"><rect class="a" width="15" height="1.667"/></g><g transform="translate(16.333 43.833)"><rect class="a" width="15" height="1.667"/></g><g transform="translate(16.333 48)"><rect class="a" width="15" height="1.667"/></g><g transform="translate(34.668 16.333)"><rect class="a" width="1.667" height="15"/></g><g transform="translate(38.834 16.333)"><rect class="a" width="1.667" height="15"/></g><g transform="translate(43.833 16.333)"><rect class="a" width="1.667" height="15"/></g><g transform="translate(48 16.333)"><rect class="a" width="1.667" height="15"/></g><g transform="translate(8 43.833)"><path class="a" d="M22.167,56.567H8V42.4H9.667V54.9h12.5Z" transform="translate(-8 -42.4)"/></g><g transform="translate(43.833 43.833)"><path class="a" d="M56.567,56.567H42.4V54.9H54.9V42.4h1.667Z" transform="translate(-42.4 -42.4)"/></g><g transform="translate(43.833 8)"><path class="a" d="M56.567,22.167H54.9V9.667H42.4V8H56.567Z" transform="translate(-42.4 -8)"/></g><g transform="translate(8 8)"><path class="a" d="M9.667,22.167H8V8H22.167V9.667H9.667Z" transform="translate(-8 -8)"/></g><g transform="translate(20.5 20.5)"><path class="a" d="M26.667,26.667H20V20h6.667Zm-5-1.667H25V21.667H21.667Z" transform="translate(-20 -20)"/></g><g transform="translate(38.834 38.834)"><path class="a" d="M44.267,44.267H37.6V37.6h6.666Zm-5-1.667H42.6V39.267H39.267Z" transform="translate(-37.601 -37.601)"/></g></g></svg>