<svg xmlns="http://www.w3.org/2000/svg" width="14" height="14" viewBox="0 0 14 14"><defs><style>.a{fill:#141413;}.b{fill:none;}</style></defs><g transform="translate(-325 -150)"><path class="a" d="M10.484,6.311l4.95-4.95a.812.812,0,0,0,0-1.115.812.812,0,0,0-1.115,0L9.369,5.2c-.525.492-.824.828-1.1,1.115.314.342.689.716,1.1,1.115l4.95,4.95a.791.791,0,0,0,1.115,0,.812.812,0,0,0,0-1.115Zm0,0" transform="translate(325.974 168.654) rotate(-90)"/><rect class="b" width="14" height="14" transform="translate(325 150)"/></g></svg>