<svg xmlns="http://www.w3.org/2000/svg" width="27.623" height="18.115" viewBox="0 0 27.623 18.115"><defs><style>.a{fill:#8db92e;stroke:#8db92e;}</style></defs><g transform="translate(-31.234 -603.986)"><g transform="translate(25.867 589.286)"><g transform="translate(5.867 15.2)"><path class="a" d="M5.867,15.2V32.315H32.49V15.2ZM31.675,31.5H6.681V16.015H31.675V31.5Z" transform="translate(-5.867 -15.2)"/><path class="a" d="M21.031,32.181A4.912,4.912,0,0,0,24.2,31.027a4.936,4.936,0,1,0,0-7.563,4.934,4.934,0,1,0-3.166,8.717ZM24.2,24.612a4.11,4.11,0,0,1,0,5.267,4.11,4.11,0,0,1,0-5.267Zm3.166-1.487a4.121,4.121,0,1,1-2.586,7.325,4.912,4.912,0,0,0,0-6.408A4.1,4.1,0,0,1,27.363,23.125Zm-6.332,0a4.1,4.1,0,0,1,2.586.917,4.912,4.912,0,0,0,0,6.408,4.119,4.119,0,1,1-2.586-7.325Z" transform="translate(-10.886 -18.688)"/></g></g></g></svg>