<svg xmlns="http://www.w3.org/2000/svg" width="28.236" height="17" viewBox="0 0 28.236 17"><defs><style>.a{fill:#ff5f00;}.b{fill:#ff0015;}.c{fill:#ff9f00;}</style></defs><rect class="a" width="7.635" height="13.365" transform="translate(10.3 1.818)"/><path class="b" d="M217.785,129.645a8.409,8.409,0,0,1,3.333-6.683,8.834,8.834,0,0,0-5.393-1.817,8.5,8.5,0,1,0,0,17,8.834,8.834,0,0,0,5.393-1.817,8.409,8.409,0,0,1-3.333-6.683" transform="translate(-207 -121.145)"/><path class="c" d="M274.552,134.912v-.33h-.088l-.1.227-.1-.227h-.088v.33h.062v-.249l.1.214h.065l.1-.215v.249Zm-.56,0v-.274h.113v-.056h-.288v.056h.113v.274Zm.833-5.267a8.615,8.615,0,0,1-8.725,8.5,8.835,8.835,0,0,1-5.393-1.817,8.366,8.366,0,0,0,0-13.366,8.835,8.835,0,0,1,5.393-1.817,8.615,8.615,0,0,1,8.725,8.5" transform="translate(-246.588 -121.145)"/></svg>