<svg xmlns="http://www.w3.org/2000/svg" width="22.811" height="27.574" viewBox="0 0 22.811 27.574"><defs><style>.a{fill:#141413;stroke:#141413;}</style></defs><g transform="translate(-10.95 -5.962)"><g transform="translate(11.45 6.462)"><path class="a" d="M26.387,12.217h1.87c1.145-.323,3.431-1.029,4.079-1.677a2.39,2.39,0,0,0-3.38-3.379c-.621.621-1.3,2.75-1.635,3.935-.34-1.185-1.014-3.314-1.635-3.935a2.389,2.389,0,1,0-3.379,3.379C22.956,11.189,25.242,11.894,26.387,12.217Zm3.17-4.456a1.541,1.541,0,0,1,2.179,2.179,12.917,12.917,0,0,1-3.611,1.432A12.915,12.915,0,0,1,29.557,7.761Zm-6.649,0a1.541,1.541,0,0,1,2.179,0,12.924,12.924,0,0,1,1.431,3.611,12.914,12.914,0,0,1-3.611-1.432,1.541,1.541,0,0,1,0-2.179Z" transform="translate(-16.218 -6.462)"/><path class="a" d="M24.09,18.91H11.45v4.779h9.171V38.031H13.609V24.539H12.76V38.88H31.95V24.539H31.1V38.031H24.09V23.689h9.171V18.91Zm-.849.849v3.082H21.469V19.759ZM12.76,22.84H12.3V19.759h8.322v3.082H12.76Zm10.481,1.7V38.031H21.469V23.689h1.772Zm9.171-1.7H24.09V19.759h8.322Z" transform="translate(-11.45 -12.306)"/></g></g></svg>