<svg xmlns="http://www.w3.org/2000/svg" width="30" height="30" viewBox="0 0 30 30"><defs><style>.a,.d{fill:none;}.a,.b{stroke:#f79f1a;}.a{stroke-width:2px;}.b{fill:#f38b00;}.c{stroke:none;}</style></defs><g transform="translate(-440 -423.125)"><g class="a" transform="translate(440 423.125)"><circle class="c" cx="15" cy="15" r="15"/><circle class="d" cx="15" cy="15" r="14"/></g><path class="b" d="M4.4,6.094v6.329A19.3,19.3,0,0,1,4.3,14.4q-.1.968-.255,2.053H2.183q-.155-1.084-.255-2.053a19.3,19.3,0,0,1-.1-1.975V6.094Zm-3,14.5a1.7,1.7,0,0,1,.127-.653,1.56,1.56,0,0,1,.354-.531,1.743,1.743,0,0,1,.537-.354,1.668,1.668,0,0,1,.664-.133,1.64,1.64,0,0,1,.653.133,1.743,1.743,0,0,1,.537.354,1.662,1.662,0,0,1,0,2.368,1.665,1.665,0,0,1-.537.349,1.7,1.7,0,0,1-.653.127,1.73,1.73,0,0,1-.664-.127,1.665,1.665,0,0,1-.537-.349,1.573,1.573,0,0,1-.354-.526A1.689,1.689,0,0,1,1.4,20.59Z" transform="translate(452.08 423.989)"/></g></svg>