<svg xmlns="http://www.w3.org/2000/svg" width="21" height="21" viewBox="0 0 21 21"><defs><style>.a{fill:none;stroke:#141413;}</style></defs><g transform="translate(0.5 0.5)"><path class="a" d="M302,397.665A17.316,17.316,0,0,0,309.335,405l2.448-2.442a.874.874,0,0,1,1.107-.222,11.648,11.648,0,0,0,4,.661A1.049,1.049,0,0,1,318,404.112v3.782A1.047,1.047,0,0,1,316.894,409,18.872,18.872,0,0,1,298,390.113,1.051,1.051,0,0,1,299.113,389H303a1.049,1.049,0,0,1,1.106,1.113,12.578,12.578,0,0,0,.668,4,1.358,1.358,0,0,1-.222,1.111Zm0,0" transform="translate(-298 -389)"/></g></svg>