<svg xmlns="http://www.w3.org/2000/svg" width="33" height="22.06" viewBox="0 0 33 22.06"><defs><style>.a{fill:#fff;}.b,.d{fill:#5f5e5e;}.c{fill:#9f9797;}.d{stroke:#5f5e5e;stroke-width:0.4px;}</style></defs><rect class="a" width="32.278" height="21.339" rx="4.248" transform="translate(0.361 0.36)"/><path class="b" d="M131.795,708.949H105.643a3.428,3.428,0,0,1-3.424-3.425V690.313a3.428,3.428,0,0,1,3.424-3.424h26.152a3.428,3.428,0,0,1,3.424,3.424v15.212A3.428,3.428,0,0,1,131.795,708.949ZM105.643,687.61a2.705,2.705,0,0,0-2.7,2.7v15.212a2.706,2.706,0,0,0,2.7,2.7h26.152a2.707,2.707,0,0,0,2.7-2.7V690.313a2.706,2.706,0,0,0-2.7-2.7Z" transform="translate(-102.219 -686.889)"/><g transform="translate(0.716 4.76)"><rect class="c" width="31.577" height="3.834"/></g><g transform="translate(2.958 15.325)"><path class="b" d="M108.542,712.581a2.221,2.221,0,1,1,2.221-2.221A2.224,2.224,0,0,1,108.542,712.581Zm0-3.721a1.5,1.5,0,1,0,1.5,1.5A1.5,1.5,0,0,0,108.542,708.86Z" transform="translate(-106.321 -708.139)"/></g><g transform="translate(5.384 15.325)"><path class="b" d="M111.907,712.581a2.221,2.221,0,1,1,2.221-2.221A2.224,2.224,0,0,1,111.907,712.581Zm0-3.721a1.5,1.5,0,1,0,1.5,1.5A1.5,1.5,0,0,0,111.907,708.86Z" transform="translate(-109.686 -708.139)"/></g><g transform="translate(17.76 5.427)"><circle class="a" cx="5.962" cy="5.962" r="5.962" transform="translate(0.36 0.361)"/><path class="b" d="M133.169,707.06a6.323,6.323,0,1,1,6.322-6.322A6.33,6.33,0,0,1,133.169,707.06Zm0-11.924a5.6,5.6,0,1,0,5.6,5.6A5.607,5.607,0,0,0,133.169,695.136Z" transform="translate(-126.846 -694.415)"/></g><g transform="translate(20.131 10.395)"><path class="d" d="M130.741,701.3l.4.544c.1.141.189.272.281.413h.017c.092-.152.184-.283.275-.419l.39-.539h.545l-.947,1.225.976,1.309H132.1l-.407-.57c-.109-.147-.2-.288-.3-.44h-.012c-.092.152-.19.288-.293.44l-.4.57h-.556l.987-1.293-.941-1.24Z" transform="translate(-130.133 -701.303)"/><g transform="translate(2.658)"><path class="d" d="M134.427,701.3l.4.544c.1.141.189.272.281.413h.017c.092-.152.184-.283.275-.419l.39-.539h.545l-.947,1.225.976,1.309h-.574l-.407-.57c-.11-.147-.2-.288-.3-.44h-.012c-.092.152-.19.288-.293.44l-.4.57h-.557l.987-1.293-.941-1.24Z" transform="translate(-133.818 -701.303)"/></g><g transform="translate(5.316)"><path class="d" d="M138.113,701.3l.4.544c.1.141.189.272.281.413h.017c.092-.152.184-.283.275-.419l.39-.539h.545l-.947,1.225.976,1.309h-.574l-.407-.57c-.109-.147-.2-.288-.3-.44h-.012c-.092.152-.19.288-.293.44l-.4.57H137.5l.987-1.293-.941-1.24Z" transform="translate(-137.504 -701.303)"/></g></g><g transform="translate(3.319 11.389)"><rect class="b" width="11.941" height="0.721"/></g></svg>