<svg xmlns="http://www.w3.org/2000/svg" width="130" height="20.583" viewBox="0 0 130 20.583"><defs><style>.a,.b{fill:#c7c7c7;}.b{fill-rule:evenodd;}</style></defs><g transform="translate(0 5.337)"><path class="a" d="M10.237,20.922q0,4.664-5.426,4.666H0V16.27H4.811Q10.237,16.27,10.237,20.922Zm-2.639,0a4.008,4.008,0,0,0-.882-2.992,2.75,2.75,0,0,0-1.888-.56H2.649V24.5H4.828a2.723,2.723,0,0,0,1.888-.574A4.02,4.02,0,0,0,7.6,20.922Z" transform="translate(0 -15.979)"/><path class="a" d="M42.04,25.561H39.408l-1.484-3.791H35.129v3.791H32.66V16.244l6.063-.014a5.234,5.234,0,0,1,2.4.512A2.381,2.381,0,0,1,42.558,19a2.538,2.538,0,0,1-2.124,2.514ZM40.092,19a1.492,1.492,0,0,0-1.657-1.715H35.129v3.445h3.306Q40.091,20.738,40.092,19Z" transform="translate(-21.364 -15.953)"/><path class="a" d="M74.832,25.587H72.086l-1.193-2.535H66.352l-1.211,2.535H62.43l4.79-9.317H69.2a1.269,1.269,0,0,1,1.224.8Zm-4.423-3.545-1.795-3.728-1.788,3.728Z" transform="translate(-40.838 -15.979)"/><path class="a" d="M102.218,25.264a6.552,6.552,0,0,1-3.566-.706,4.573,4.573,0,0,1-1.982-4.15,4.535,4.535,0,0,1,1.982-4.161,6.868,6.868,0,0,1,3.566-.768c4.583,0,4.794,3.742,4.794,3.742H104.49s-.035-2.947-2.59-2.947c-2.1,0-2.677,2.632-2.677,4.133,0,1.525.463,4,2.967,4s2.362-2.864,2.362-2.864H101.6V20.184h5.53v.792C107.132,20.969,107.226,25.264,102.218,25.264Z" transform="translate(-63.236 -15.463)"/><path class="a" d="M139.649,20.372a5.166,5.166,0,0,1-1.525,3.739,6.244,6.244,0,0,1-7.408,0,5.345,5.345,0,0,1,0-7.477,6.3,6.3,0,0,1,7.408,0A5.2,5.2,0,0,1,139.649,20.372Zm-2.48.014a6.017,6.017,0,0,0-.8-3.151,2.435,2.435,0,0,0-3.887,0,5.869,5.869,0,0,0-.823,3.151,5.791,5.791,0,0,0,.823,3.147,2.451,2.451,0,0,0,3.887,0A5.936,5.936,0,0,0,137.169,20.386Z" transform="translate(-84.509 -15.43)"/><path class="a" d="M172.709,25.587h-2.435L165,18.131v7.457h-2.48V16.27h2.691l5.036,7.111V16.27h2.463Z" transform="translate(-106.312 -15.979)"/></g><path class="a" d="M204.824,18.373a2.746,2.746,0,0,1-1.21,2.373,4.372,4.372,0,0,1-2.21.584h-3.1v3.414h-2.6V15.43h5.7a4.3,4.3,0,0,1,2.21.584A2.738,2.738,0,0,1,204.824,18.373Zm-2.521,0a2.047,2.047,0,0,0-.633-1.612,1.762,1.762,0,0,0-1.207-.46H198.3v4.161h2.158a1.8,1.8,0,0,0,1.207-.446A2.111,2.111,0,0,0,202.3,18.37Z" transform="translate(-128.016 -10.093)"/><path class="a" d="M262.18,20.8h-3.659a3.047,3.047,0,0,1-2.013-.605,2.368,2.368,0,0,1-.858-2.03,2.523,2.523,0,0,1,1.01-2.217,4.538,4.538,0,0,1,2.189-.515h5.994v1.086h-5.06a1.716,1.716,0,0,0-1.76,1.646,1.536,1.536,0,0,0,.4,1.107,2.55,2.55,0,0,0,1.508.412h1.47" transform="translate(-167.232 -10.093)"/><path class="a" d="M261.078,27.73h1.584a3.047,3.047,0,0,1,2.013.605,2.375,2.375,0,0,1,.861,2.03,2.535,2.535,0,0,1-1.013,2.22,4.538,4.538,0,0,1-2.189.515H256.34V32.015H261.4a1.713,1.713,0,0,0,1.757-1.65,1.536,1.536,0,0,0-.4-1.107,2.542,2.542,0,0,0-1.508-.408h-1.543" transform="translate(-167.684 -18.139)"/><path class="a" d="M292.66,20.8H289a3.047,3.047,0,0,1-2.013-.605,2.377,2.377,0,0,1-.858-2.03,2.523,2.523,0,0,1,1.01-2.217,4.548,4.548,0,0,1,2.189-.515h5.994v1.086h-5.06a1.713,1.713,0,0,0-1.76,1.646,1.536,1.536,0,0,0,.4,1.107,2.543,2.543,0,0,0,1.508.412h1.47" transform="translate(-187.171 -10.093)"/><path class="a" d="M291.558,27.73h1.584a3.041,3.041,0,0,1,2.013.605,2.374,2.374,0,0,1,.861,2.03A2.535,2.535,0,0,1,295,32.586a4.542,4.542,0,0,1-2.193.515h-5.99V32.015h5.06a1.713,1.713,0,0,0,1.757-1.65,1.536,1.536,0,0,0-.4-1.107,2.549,2.549,0,0,0-1.508-.408h-1.543" transform="translate(-187.622 -18.139)"/><path class="a" d="M230.686,25.587H227.94l-1.193-2.535h-4.541l-1.214,2.535H218.28l4.79-9.317h1.982a1.27,1.27,0,0,1,1.228.8Zm-4.42-3.545-1.8-3.728-1.788,3.728Z" transform="translate(-142.787 -10.643)"/><path class="b" d="M337.9,28.669a8.864,8.864,0,0,0,1.2.242c.048,0,.059-.014.059-.042a.563.563,0,0,0,.163.042c.052,0,.2-.114.252-.118s.114.028.163.028c.01.066.059.145.062.194a1.5,1.5,0,0,1-.4.816l-.266.024c-.049,0-.159-.045-.211-.038s-.014.055-.066.062-.332-.069-.384-.066a1.625,1.625,0,0,0-.232.118l-.066.007a4.614,4.614,0,0,1-.837-.36,1.165,1.165,0,0,0-.024-.277C337.393,29.225,337.552,28.7,337.9,28.669Z" transform="translate(-220.65 -18.753)"/><path class="b" d="M333.762,35.584c.048,0,.055.035.1.031s0-.042.045-.045c.007,0,1.435.418,1.577.4.052,0,.135-.069.183-.076s.055.035.1.028,0-.038.048-.042.477.042.491.173c.187-.083.252.239.36.322l.028.308c.021.239-.09.7-.37.723-.048,0-.246-.038-.381-.048l0-.055c-.263-.031-.789-.142-.84-.138-.007,0-.107.069-.114.069-.052,0-.149-.045-.2-.042s-.128.048-.176.055c-.121.01-.228-.159-.332-.149-.048,0-.163.111-.214.114-.474.042-.287,0-.837-.339,0-.024.017-.031.035-.048a1.425,1.425,0,0,1-.142-.412C333.112,36.168,333.416,35.615,333.762,35.584Z" transform="translate(-217.914 -23.268)"/><path class="b" d="M324.529,0c.08-.007,1.134.152,1.186.149s.1-.066.156-.069c.232-.021.56.128.764.107a3.2,3.2,0,0,1,1,.28c.014,0,1.809.2,2,.256a1.02,1.02,0,0,0,.256.069,1.582,1.582,0,0,1,.591-.059,1.491,1.491,0,0,1,.571.329,1.845,1.845,0,0,1,.318-.021c.183.052.36.311.408.308s2.075.626,2.238.661c.086.017.29-.107.488-.235a1.319,1.319,0,0,1,1.041-.142c.7.121,1.805.318,1.94.346,1,.235,2.265,1.058,2.321,1.629,0,.024-.052.111-.048.159.017.169-.429.474-.536.484a5.809,5.809,0,0,0-.719-.093c-.052,0-.024.08-.073.083s-.035-.035-.086-.031-.073.086-.111.1c-.342.125-.439.588-.605.605a.065.065,0,0,1-.073-.035c-.069.062-.218.194-.211.242s.425.394.432.457c.021.2.214.315.235.54,0,.048-.035.273-.028.322,0,.007.232.453.246.453.052,0-.024-.038.028-.041.079-.007.1.066.152.086.048,0,.059-.09.135-.031.19-.156.069-.252.055-.422-.007-.048.107-.346.1-.394-.014-.159.463-.647.778-.948.048.038.093.048.114.073l.066-.007c.052,0,0-.042.048-.045.145-.01.367.318.37.363.021.183-.01.446-.01.73.052.536-.73.965-.73,1.549a.424.424,0,0,0,.187.38.432.432,0,0,1,.176.38c.01.315.028.806.028,1,0,.284-.045,1.674-.062,1.688a.6.6,0,0,1,.128.242c.021.208-.024.581,0,.8a1.477,1.477,0,0,1-.46,1.038.294.294,0,0,0-.156.239c-.163.761-.751,3.867-.809,4.123a.363.363,0,0,0,.035.294.427.427,0,0,1,.076.294c-.024.332-.087,1.051-.121,1.511a.647.647,0,0,1-.346.553,3.259,3.259,0,0,1-.38.183c-.048-.014-.045-.052-.1-.045a2.529,2.529,0,0,1-.266.1c-.142.014-.287-.09-.446-.08-.048.007-.014.042-.066.045-.007,0-.522-.111-.574-.1s-.035.059-.083.062-.114-.086-.159-.083.021.038-.028.042-1.9-.128-1.947-.125a7.1,7.1,0,0,1-.982-.173.748.748,0,0,1-.3-.2c-.1-.014-1.107-.477-1.325-.564-.159.014-.176-.035-.329.135a1.4,1.4,0,0,0-.495.128c-.066-.014-.142-.1-.19-.1s-.107.128-.162.131-.014-.038-.066-.035-.239.059-.291.066a9.569,9.569,0,0,1-1.608-.443,2.749,2.749,0,0,1-1,.028c-.048,0-5.637-.7-5.7-1.975,0-.045-.066-.042-.073-.09s.01-.135,0-.183c-.01-.111.259-.377.29-.4a11.106,11.106,0,0,1-.118-1.159c-.035.024-.069.066-.118.073-.107.01-.325-.311-.332-.38-.017-.176.041-.429.01-.757-.024-.218.183-.4.294-.56a5.934,5.934,0,0,0,.021-.636,16.4,16.4,0,0,1,1.134-2.8.587.587,0,0,0-.048-.65c-.142-.225-.318-.474-.446-.678a.958.958,0,0,1-.08-.8c.131-.54.349-1.356.346-1.39.038-.311.249-1.74.318-2.3.01-.083.571-1.086.477-1.549-.014-.083-.08-.19-.083-.235-.01-.09.118-.685.1-.851a2.433,2.433,0,0,1,.647-1.28c.446-.173.273-.674.674-.709Zm2.4,2c-.09.007-.346.169-.339.27.021.218.45.246.616.356.38.128.8.218,1.235.353.156.048.425.073.432.121s.242.083.3.086a.755.755,0,0,0,.159.128c.124.055.38,0,.5.138.007-.031-.038-.035.017-.038a3.251,3.251,0,0,0,.512.149c.052,0,.117-.048.166-.052s.114.028.166.024a5.682,5.682,0,0,1,.778-.367c.048-.073.142-.169.131-.246,0-.048.01-.08.007-.128a1.784,1.784,0,0,0-.2-.311.358.358,0,0,1-.152-.024.876.876,0,0,1-.208.131c-.048,0-.415-.08-.467-.076s-.083.066-.135.073-.093-.031-.142-.024c-.163.28-.055.408-.342.432a.119.119,0,0,1-.121-.107c-.007-.048.031-.311.028-.36-.014-.149-.114-.083-.152-.266-.128.048-.259.135-.308.138s-.961-.232-1.224-.273a.91.91,0,0,1-.239.007,4.948,4.948,0,0,1-.671-.021c-.131-.017-.3-.121-.353-.114ZM334.9,3.012c-.114.01-.284.138-.384.149-.048,0-.014-.038-.062-.035a.541.541,0,0,0-.225.28c-.024.135.007.277-.014.408-.028.149-.322.422-.3.588l.024.256a1.655,1.655,0,0,1,.446.384c.01.107.166.228.2.315.031.062-.031.138.069.225l.048.5a1.868,1.868,0,0,1-.266.764c-.073.384-.508.588-.8.816-.09.142-.218.211-.318.342a4.2,4.2,0,0,1-.515.149.41.41,0,0,1-.138-.028.848.848,0,0,1-.3.284c-.052.2-.342.889-.567.91l-.256.021c-.042-.031-.073-.069-.121-.066s-.214.014-.522.007c-.142,0-.83-.277-1-.263s-.564.374-1.006.318a2.281,2.281,0,0,1-.757-.166c0,.028,0,.038-.052.042s-.055-.035-.107-.031-.024.042-.076.045-.1-.059-.107-.1c-.01.021.01.028-.042.031s-.059-.01-.086-.007a1.127,1.127,0,0,1-.4.225,1.814,1.814,0,0,1-.671-.27c-.048,0,0,.038-.045.042s-.1-.048-.149-.045c-.138.014-.27.138-.411.152-.048,0-.259-.035-.308-.031-.38.031-.979,1.048-1.307,1.273a1.79,1.79,0,0,0-.024.685l.031.291c0,.048-.08.674-.076.719s.038-.031.042.014a28.536,28.536,0,0,1-.647,2.812c.024.228.214.56.221.809.028,0,.031-.021.045-.042.131.066.163.2.322.187.277-.024.356-.768.661-.792a3.5,3.5,0,0,1,1.117.38,2.375,2.375,0,0,1,.588.066.121.121,0,0,0,0,.1c.035-.086.263-.138.315-.142s.156.045.208.042.059-.045.107-.048a2.432,2.432,0,0,1,.91.318.077.077,0,0,1-.038.021.452.452,0,0,1,.1.187c0,.048.007.1.014.142.028,0,.042-.042.093-.045s.021,0,.045.01c.007.1.218.377.225.439s-.014.08-.007.125a.642.642,0,0,1,.218.169l-.038.045c.048.024.076.08.121.093.073-.017.522-.232.5-.429,0-.048-.042.014-.045-.035s.066-.125.118-.166c.014.014.052.01.052.01-.024-.028-.028-.048-.045-.059a.886.886,0,0,0,.453-.706,12.51,12.51,0,0,0,.266-1.363,1.59,1.59,0,0,1,.235-.837.958.958,0,0,0,.062-.356,2.77,2.77,0,0,1,.062-.623,3.648,3.648,0,0,0,.335-.906c0-.048-.062-.46-.118-1.013a.56.56,0,0,1,.564-.595c.028-.028.038-.062.086-.069.135-.01.363.086.446.076.048,0,.017-.042.066-.045.311-.028.481.529.5.73a8.763,8.763,0,0,1-.169,1.183,1.82,1.82,0,0,1,.035.367,5.846,5.846,0,0,1,.491,1.293,3.848,3.848,0,0,0,.059.4s0,.01,0,.069a3.928,3.928,0,0,1-.6,1.816.483.483,0,0,1,.021.2c.052.114.1.173.228.163.052,0,.429-.1.477-.1s.069.017.242.042c.249.259.861.235,1.1.546a2.588,2.588,0,0,0,.937.394c.052,0,0-.038.048-.042s.066.028.118.066a.566.566,0,0,1,.232-.118c.211-.021.156.062.384.163a1.206,1.206,0,0,0,.079-.114c-.29-.2-.491-.578-.9-.661.017-.035-.007-.073-.01-.1-.771-.252-.868-.982-1.255-1.4l-.031-.339c-.007-.048.169-.221.225-.225a1.26,1.26,0,0,1,.453.114c0-.028-.038-.031.014-.038a7.42,7.42,0,0,1,.851.284.079.079,0,0,0-.01.066c.048,0,.111.01.142.007.014.121.474.28.488.418.017.169.661.415.833.4.052,0,0-.038.045-.042a.426.426,0,0,1,.169.045c.09-.1.339-.169.325-.329a.947.947,0,0,0-.128-.249,4.517,4.517,0,0,1-1.065-.37,3.412,3.412,0,0,1-.629-.308.7.7,0,0,0-.131-.249c-.045,0-.163-.035-.166-.073-.014-.128-.505-.477-.671-.948-.014-.014-.934-.7-.965-1.031,0-.045-.083-.235-.087-.284-.028-.273.111-.27.225-.54.214.048.311-.066.45-.076a1.785,1.785,0,0,1,.692.4c.176.031.4.114.543.145a.035.035,0,0,1-.014.024c-.014,0-.035-.017-.066-.01.211.145.315.425.571.463.2.242.616.28.834.508.159-.062.446.059.546.048.149-.014.256-.311.246-.425s-.121-.156-.291-.214a1.4,1.4,0,0,1-.315-.156c-.2-.142-.336-.377-.5-.457-.246-.118-.5-.031-.633-.259l-.059,0c-.048,0,.028.038-.028.042a4.6,4.6,0,0,1-1.152-.975,1.228,1.228,0,0,1-.436-.64c0-.045-.038-.187-.041-.239-.014-.125-.042-.474.211-.533-.031-.007-.038.031-.042-.014-.007-.076.356-.463.356-.463.052,0,.121-.031.17-.035.211-.021.239.284.322.332a4.813,4.813,0,0,1,.577.27,5.708,5.708,0,0,1,.816.595c.27.062.311.176.546.159a.7.7,0,0,0,.457-.225c-.062-.08-.156-.159-.173-.221a1.463,1.463,0,0,1-.221-.08c-.114-.08-.09-.2-.142-.291a2.825,2.825,0,0,0-.235-.329c-.353-.131-.429-.564-.571-.837-.214-.073-.246-.2-.3-.38-.152-.069-.176-.156-.176-.225-.128,0-.125-.031-.128-.1-.007-.048.031-.111.024-.159s-.173-.325-.176-.374c-.024-.259.121-.813.332-.889a2.221,2.221,0,0,1,.176-.339c.1-.014.273-.107.322-.111a1.422,1.422,0,0,1,.19.038l.007.059c.048-.021.066-.086.083-.121l.252-.021c.052,0,.038.014.066.035.121-.09.342-.059.353-.221a.1.1,0,0,1-.069-.031c-.09-.18-.4-.218-.4-.27a.684.684,0,0,0-.086-.176.226.226,0,0,1-.259-.125c-.086-.066-.266-.121-.27-.152-.01-.1-.107-.024-.114-.125-.007-.048-.038-.173-.052-.273-.1.09-.163-.042-.166-.076s.031-.08.024-.125a.15.15,0,0,1-.08-.01c-.035-.145-.3-.481-.564-.46-.007,0-.245.1-.256-.007-.01-.042-.066-.055-.114-.052Zm-8.311.834c-.028.024-.028.042-.08.045a.551.551,0,0,0-.5.595,2.819,2.819,0,0,1,.2.387c.01.107.073.322.079.4.035.374-.5.813-.605,1.134.176.3.7.3.941.415a1.545,1.545,0,0,1,.425.356,6.38,6.38,0,0,0,.858.166c0-.028.014-.038.062-.042.249-.021.4.488.667.467l.27-.024c.052,0-.024-.038.028-.042a.255.255,0,0,1,.152.066c.073-.152.4-.107.488-.256l.235-.021c.066,0,.363.142.474.135a.852.852,0,0,0,.816-.837c-.007-.076-.183-.208-.183-.214-.017-.19-.232-.076-.246-.211-.01-.086-.159-.176-.18-.422a1.161,1.161,0,0,1,.249-.484c.038.014.035.038.083.031s.145-.09.194-.093.1.028.156.024c.093-.007.159-.048.149-.159-.007-.048-.031-.045-.031-.045-.159.021-.522,0-.547-.263-.007-.048.031-.062.028-.111-.01-.111-.259-.367-.311-.408l-.356.031c-.052,0-.035-.038-.035-.038a1.375,1.375,0,0,1-.28.18,4.558,4.558,0,0,1-.719-.346,1.931,1.931,0,0,1-.166.169.2.2,0,0,0-.125-.028c-.1.007-.211.242-.2.318.024.263.522.367.543.571,0,.048-.045-.024-.038.024.01.121.086.263.1.349.031.329-.543.7-.616.73a1.557,1.557,0,0,0-.239.038c-.391.035-.595-.363-.861-.557l-.024-.242a2.058,2.058,0,0,1,.37-.771c.062-.052.384-.3.377-.37,0-.048-.107-.08-.111-.128-.017-.187-.456-.131-.588-.221,0,.031.028.035-.021.042,0,0-.218.007-.263-.131C327.036,4.164,326.711,3.949,326.59,3.845Z" transform="translate(-210.086 0.001)"/></svg>