<svg xmlns="http://www.w3.org/2000/svg" xmlns:xlink="http://www.w3.org/1999/xlink" width="175.745" height="113.5" viewBox="0 0 175.745 113.5"><defs><style>.a{fill:#383737;}.b{fill:#e30d17;}.c{fill:#eb610a;}.d{fill:#f69f00;}.e{fill:#fff;}.f{fill:#f0c41b;}.g{fill:#f3d55c;}.h{filter:url(#a);}</style><filter id="a" x="0" y="0" width="175.745" height="113.5" filterUnits="userSpaceOnUse"><feOffset dy="3" input="SourceAlpha"/><feGaussianBlur stdDeviation="3" result="b"/><feFlood flood-opacity="0.192"/><feComposite operator="in" in2="b"/><feComposite in="SourceGraphic"/></filter></defs><g transform="translate(9 6)"><g class="h" transform="matrix(1, 0, 0, 1, -9, -6)"><rect class="a" width="157.745" height="95.5" rx="6" transform="translate(9 6)"/></g><g transform="translate(129 74)"><path class="b" d="M7.809,6.3A6.285,6.285,0,0,1,10.2,1.365,6.288,6.288,0,0,0,0,6.3a6.3,6.3,0,0,0,10.207,4.942A6.308,6.308,0,0,1,7.809,6.3Z"/><path class="c" d="M96.7,21.834a6.285,6.285,0,0,0,2.39,4.934,6.288,6.288,0,0,0,0-9.868A6.272,6.272,0,0,0,96.7,21.834Z" transform="translate(-88.891 -15.535)"/><path class="d" d="M246.573,117.434v-.186H246.5V117.2h.2v.048h-.081v.186Zm.388,0v-.162l-.057.137h-.057l-.057-.137v.162h-.057V117.2h.081l.056.153.057-.153h.081v.234Z" transform="translate(-226.595 -107.736)"/><path class="d" d="M130.208,0A6.285,6.285,0,0,0,126.3,1.357a6.287,6.287,0,0,1,0,9.868A6.294,6.294,0,1,0,130.208,0Z" transform="translate(-116.101)"/></g><g transform="translate(11.599 49.827)"><circle class="e" cx="1.856" cy="1.856" r="1.856" transform="translate(0 0)"/><circle class="e" cx="1.856" cy="1.856" r="1.856" transform="translate(6.388 0)"/><circle class="e" cx="1.856" cy="1.856" r="1.856" transform="translate(12.776 0)"/><circle class="e" cx="1.856" cy="1.856" r="1.856" transform="translate(19.164 0)"/></g><g transform="translate(42.22 49.827)"><circle class="e" cx="1.856" cy="1.856" r="1.856" transform="translate(0 0)"/><circle class="e" cx="1.856" cy="1.856" r="1.856" transform="translate(6.388 0)"/><circle class="e" cx="1.856" cy="1.856" r="1.856" transform="translate(12.776 0)"/><circle class="e" cx="1.856" cy="1.856" r="1.856" transform="translate(19.164 0)"/></g><g transform="translate(72.841 49.827)"><circle class="e" cx="1.856" cy="1.856" r="1.856" transform="translate(0 0)"/><circle class="e" cx="1.856" cy="1.856" r="1.856" transform="translate(6.388 0)"/><circle class="e" cx="1.856" cy="1.856" r="1.856" transform="translate(12.776 0)"/><circle class="e" cx="1.856" cy="1.856" r="1.856" transform="translate(19.164 0)"/></g><g transform="translate(11.599 23.198)"><path class="f" d="M225.334,321.905H208.969a1.489,1.489,0,0,1-1.522-1.454v-11a1.489,1.489,0,0,1,1.522-1.455h16.365a1.489,1.489,0,0,1,1.522,1.455v11a1.489,1.489,0,0,1-1.522,1.454" transform="translate(-206.286 -306.833)"/><path class="g" d="M222,319.77H205.712a2.672,2.672,0,0,1-2.723-2.615v-11a2.673,2.673,0,0,1,2.723-2.616H222a2.677,2.677,0,0,1,2.723,2.616v11A2.676,2.676,0,0,1,222,319.77m-16.285-13.911a.3.3,0,0,0-.306.294v11a.3.3,0,0,0,.306.3H222a.3.3,0,0,0,.306-.3v-11a.3.3,0,0,0-.306-.294Zm0,0" transform="translate(-202.989 -303.536)"/><path class="f" d="M245.761,309.449a1.454,1.454,0,0,0-1.455-1.455h-8.686a1.455,1.455,0,0,0-1.456,1.455v11a1.454,1.454,0,0,0,1.456,1.454h1.726a1.454,1.454,0,0,0,1.455-1.454v-6.365a1.455,1.455,0,0,1,1.456-1.455h4.048a1.454,1.454,0,0,0,1.455-1.455Zm0,0" transform="translate(-225.191 -306.833)"/><path class="g" d="M234.051,319.77h-1.726a2.617,2.617,0,0,1-2.616-2.615v-11a2.618,2.618,0,0,1,2.616-2.616h8.686a2.622,2.622,0,0,1,2.616,2.616v1.726a2.622,2.622,0,0,1-2.616,2.616h-4.049a.293.293,0,0,0-.294.294v6.365a2.617,2.617,0,0,1-2.616,2.615m-1.726-13.911a.291.291,0,0,0-.294.294v11a.3.3,0,0,0,.294.3h1.726a.3.3,0,0,0,.294-.3V310.79a2.618,2.618,0,0,1,2.617-2.616h4.049a.293.293,0,0,0,.294-.294v-1.726a.292.292,0,0,0-.294-.294Zm0,0" transform="translate(-221.895 -303.536)"/><path class="g" d="M255.63,341.464h-6.959a1.161,1.161,0,1,1,0-2.322h6.959a1.161,1.161,0,1,1,0,2.322" transform="translate(-235.06 -329.868)"/><path class="g" d="M211.109,323.661H204.15a1.161,1.161,0,1,1,0-2.322h6.959a1.161,1.161,0,1,1,0,2.322" transform="translate(-202.989 -316.702)"/><path class="g" d="M211.109,341.464H204.15a1.161,1.161,0,1,1,0-2.322h6.959a1.161,1.161,0,1,1,0,2.322" transform="translate(-202.989 -329.868)"/></g></g></svg>