<svg xmlns="http://www.w3.org/2000/svg" width="89" height="53.881" viewBox="0 0 89 53.881"><defs><style>.a{fill:#383737;}.b{fill:#e30d17;}.c{fill:#eb610a;}.d{fill:#f69f00;}.e{fill:#f0c41b;}.f{fill:#f3d55c;}.g{fill:#fff;}</style></defs><rect class="a" width="89" height="53.881" rx="6"/><g transform="translate(72.782 41.751)"><path class="b" d="M4.406,3.554A3.546,3.546,0,0,1,5.754.77,3.547,3.547,0,0,0,0,3.554,3.555,3.555,0,0,0,5.759,6.342,3.559,3.559,0,0,1,4.406,3.554Z"/><path class="c" d="M96.7,19.684a3.546,3.546,0,0,0,1.349,2.784,3.547,3.547,0,0,0,0-5.568A3.539,3.539,0,0,0,96.7,19.684Z" transform="translate(-92.294 -16.13)"/><path class="d" d="M246.541,117.332v-.1H246.5V117.2h.114v.027h-.046v.1Zm.219,0v-.091l-.032.077H246.7l-.032-.077v.091h-.032V117.2h.046l.032.087.032-.087h.046v.132Z" transform="translate(-235.269 -111.86)"/><path class="d" d="M128.505,0A3.546,3.546,0,0,0,126.3.765a3.547,3.547,0,0,1,0,5.568A3.551,3.551,0,1,0,128.505,0Z" transform="translate(-120.546)"/></g><g transform="translate(6.544 13.088)"><path class="e" d="M217.539,315.843h-9.233a.84.84,0,0,1-.859-.82v-6.207a.84.84,0,0,1,.859-.821h9.233a.84.84,0,0,1,.859.821v6.207a.84.84,0,0,1-.859.82" transform="translate(-206.792 -307.339)"/><path class="f" d="M213.713,312.695h-9.188a1.507,1.507,0,0,1-1.537-1.475v-6.207a1.508,1.508,0,0,1,1.537-1.476h9.188a1.51,1.51,0,0,1,1.537,1.476v6.207a1.51,1.51,0,0,1-1.537,1.475m-9.188-7.849a.168.168,0,0,0-.173.166v6.207a.171.171,0,0,0,.173.169h9.188a.171.171,0,0,0,.173-.169v-6.207a.168.168,0,0,0-.173-.166Zm0,0" transform="translate(-202.989 -303.536)"/><path class="e" d="M240.708,308.815a.821.821,0,0,0-.821-.821h-4.9a.821.821,0,0,0-.821.821v6.207a.821.821,0,0,0,.821.82h.974a.82.82,0,0,0,.821-.82v-3.591a.821.821,0,0,1,.821-.821h2.284a.821.821,0,0,0,.821-.821Zm0,0" transform="translate(-229.102 -307.339)"/><path class="f" d="M232.158,312.695h-.974a1.476,1.476,0,0,1-1.476-1.475v-6.207a1.477,1.477,0,0,1,1.476-1.476h4.9a1.479,1.479,0,0,1,1.476,1.476v.974a1.479,1.479,0,0,1-1.476,1.476H233.8a.165.165,0,0,0-.166.166v3.591a1.476,1.476,0,0,1-1.476,1.475m-.974-7.849a.164.164,0,0,0-.166.166v6.207a.167.167,0,0,0,.166.169h.974a.168.168,0,0,0,.166-.169v-3.591a1.477,1.477,0,0,1,1.476-1.476h2.284a.165.165,0,0,0,.166-.166v-.974a.165.165,0,0,0-.166-.166Zm0,0" transform="translate(-225.3 -303.536)"/><path class="f" d="M252.092,340.452h-3.926a.655.655,0,1,1,0-1.31h3.926a.655.655,0,1,1,0,1.31" transform="translate(-240.486 -333.909)"/><path class="f" d="M207.571,322.649h-3.926a.655.655,0,1,1,0-1.31h3.926a.655.655,0,1,1,0,1.31" transform="translate(-202.989 -318.723)"/><path class="f" d="M207.571,340.452h-3.926a.655.655,0,1,1,0-1.31h3.926a.655.655,0,1,1,0,1.31" transform="translate(-202.989 -333.909)"/></g><g transform="translate(1.625 30.262)"><circle class="g" cx="1" cy="1" r="1" transform="translate(5 0)"/><circle class="g" cx="1" cy="1" r="1" transform="translate(8.777 0)"/><circle class="g" cx="1" cy="1" r="1" transform="translate(12.555 0)"/><circle class="g" cx="1" cy="1" r="1" transform="translate(16.332 0)"/></g><g transform="translate(25.525 30.262)"><circle class="g" cx="1" cy="1" r="1" transform="translate(1 0)"/><circle class="g" cx="1" cy="1" r="1" transform="translate(4.777 0)"/><circle class="g" cx="1" cy="1" r="1" transform="translate(8.555 0)"/><circle class="g" cx="1" cy="1" r="1" transform="translate(12.332 0)"/></g><g transform="translate(45.424 30.262)"><circle class="g" cx="1" cy="1" r="1" transform="translate(1 0)"/><circle class="g" cx="1" cy="1" r="1" transform="translate(4.777 0)"/><circle class="g" cx="1" cy="1" r="1" transform="translate(8.555 0)"/><circle class="g" cx="1" cy="1" r="1" transform="translate(12.332 0)"/></g></svg>