<svg xmlns="http://www.w3.org/2000/svg" width="310" height="110" viewBox="0 0 310 110"><defs><style>.a{fill:#f4f4f4;}.b{fill:#fff;}.c{fill:none;}.d{fill:#141413;}</style></defs><g transform="translate(-45 -793)"><rect class="a" width="310" height="110" transform="translate(45 793)"/><circle class="b" cx="35" cy="35" r="35" transform="translate(165 813)"/><g transform="translate(172 820)"><rect class="c" width="57" height="57"/><g transform="translate(3.799 9.149)"><path class="d" d="M20.162,13.66l.682-.227,1.6-.532a4.7,4.7,0,0,1,3.744.779l8.427,6.555,1.925,1.5.661-.22.159-.053.82-.273-11.109-8.64a6.061,6.061,0,0,0-5.082-1.008L19.7,12.3l-5.26,1.753,9.028,12.036.718-.239.151-.05.568-.19-1.17-1.56-6.947-9.263,3.367-1.122" transform="translate(-6.245 -11.334)"/><path class="d" d="M11.716,31.575h0l1.144.542c.921.438,2.829.191,4.236-.278l2.558-.853L47.2,21.8l4.107,2.055a2.967,2.967,0,0,1-1.95,3.474L41.747,29.87a2.976,2.976,0,0,1,.988,1.186L49.812,28.7A4.406,4.406,0,0,0,52.6,23.131l-.094-.282-5.19-2.6L19.2,29.623l-2.558.853a6.166,6.166,0,0,1-3.164.342l-1.144-.543h0l-2.1-1L7.2,30.286l-.9.3a1.394,1.394,0,0,0-.935.914,1.332,1.332,0,0,0,.269,1.22l4.773,5.949a4.863,4.863,0,0,0,5.032,1.484l8.383-2.794,3.67-1.224.719-.24.221-.074.5-.166,9.286-3.095,1.026-.342c.383-.128.705-.127.841,0,.112.106.183.395.049.889l-.1.362L37.116,44.191a4.7,4.7,0,0,1-2.527,2.869l-2.278.759-.006,0-3.367,1.122V37.173l-.056.019-.663.22-.719.24V50.939l5.26-1.753,2.284-.761A6.059,6.059,0,0,0,38.5,44.569l3.023-11.083a3.335,3.335,0,0,0,.091-.541,2.215,2.215,0,0,0-.279-1.423,1.692,1.692,0,0,0-.262-.346,2.215,2.215,0,0,0-2.283-.321l-1.026.342-14.394,4.8-8.383,2.794a3.437,3.437,0,0,1-3.456-1.019L6.846,31.921l.813-.271L8.4,31.4l.171-.057,1.565-.522,1.579.75" transform="translate(-5.321 -12.238)"/></g></g></g></svg>