<svg xmlns="http://www.w3.org/2000/svg" width="80" height="80" viewBox="0 0 80 80"><defs><style>.a{fill:#e3dfd7;}.b{fill:#141413;}</style></defs><g transform="translate(15 15)"><circle class="a" cx="40" cy="40" r="40" transform="translate(-15 -15)"/><g transform="translate(-5 -5)"><g transform="translate(15.5 15.5)"><path class="b" d="M29.5,29.5H16V16H29.5ZM17.5,28H28V17.5H17.5Z" transform="translate(-16 -16)"/></g><g transform="translate(32.001 32.001)"><path class="b" d="M47.1,47.1H33.6V33.6H47.1Zm-12-1.5H45.6V35.1H35.1Z" transform="translate(-33.601 -33.601)"/></g><g transform="translate(15.5 32.001)"><rect class="b" width="13.5" height="1.5" transform="translate(0)"/></g><g transform="translate(15.5 35.751)"><rect class="b" width="13.5" height="1.5" transform="translate(0)"/></g><g transform="translate(15.5 40.25)"><rect class="b" width="13.5" height="1.5" transform="translate(0)"/></g><g transform="translate(15.5 44)"><rect class="b" width="13.5" height="1.5" transform="translate(0)"/></g><g transform="translate(32.001 15.5)"><rect class="b" width="1.5" height="13.5" transform="translate(0 0)"/></g><g transform="translate(35.751 15.5)"><rect class="b" width="1.5" height="13.5" transform="translate(0 0)"/></g><g transform="translate(40.25 15.5)"><rect class="b" width="1.5" height="13.5" transform="translate(0 0)"/></g><g transform="translate(44 15.5)"><rect class="b" width="1.5" height="13.5" transform="translate(0 0)"/></g><g transform="translate(8 40.25)"><path class="b" d="M20.75,55.15H8V42.4H9.5V53.65H20.75Z" transform="translate(-8 -42.4)"/></g><g transform="translate(40.25 40.25)"><path class="b" d="M55.15,55.15H42.4v-1.5H53.65V42.4h1.5Z" transform="translate(-42.4 -42.4)"/></g><g transform="translate(40.25 8)"><path class="b" d="M55.15,20.75h-1.5V9.5H42.4V8H55.15Z" transform="translate(-42.4 -8)"/></g><g transform="translate(8 8)"><path class="b" d="M9.5,20.75H8V8H20.75V9.5H9.5Z" transform="translate(-8 -8)"/></g><g transform="translate(19.25 19.25)"><path class="b" d="M26,26H20V20h6Zm-4.5-1.5h3v-3h-3Z" transform="translate(-20 -20)"/></g><g transform="translate(35.751 35.751)"><path class="b" d="M43.6,43.6h-6v-6h6Zm-4.5-1.5h3v-3h-3Z" transform="translate(-37.601 -37.601)"/></g></g></g></svg>