<svg xmlns="http://www.w3.org/2000/svg" width="80" height="80" viewBox="0 0 80 80"><defs><style>.a{fill:#e3dfd7;}.b{fill:#141413;}</style></defs><g transform="translate(18 18)"><circle class="a" cx="40" cy="40" r="40" transform="translate(-18 -18)"/><path class="b" d="M19.806,28H14.387A3.391,3.391,0,0,0,11,31.387v8.806a.677.677,0,0,0,.677.677H13.71V51.032a.677.677,0,0,0,.677.677h5.419a.677.677,0,0,0,.677-.677V40.871h2.032a.677.677,0,0,0,.677-.677V31.387A3.391,3.391,0,0,0,19.806,28Zm-5.419,1.355h5.419a2.035,2.035,0,0,1,2.032,2.032v5.419H20.484V34.1H19.129V47.645H17.774V38.161H16.419v9.484H15.065V34.1H13.71v2.71H12.355V31.387A2.035,2.035,0,0,1,14.387,29.355ZM12.355,39.516V38.161H13.71v1.355ZM15.065,49h1.355v1.355H15.065Zm2.71,1.355V49h1.355v1.355Zm2.71-10.839V38.161h1.355v1.355Z" transform="translate(-3.226 -8.71)"/><path class="b" d="M18.387,22.129a3.391,3.391,0,0,0,3.387-3.387V17.387a3.387,3.387,0,0,0-6.774,0v1.355A3.391,3.391,0,0,0,18.387,22.129Zm-2.032-4.742a2.032,2.032,0,0,1,4.065,0v1.355a2.032,2.032,0,0,1-4.065,0Z" transform="translate(-4.516 -4.194)"/><path class="b" d="M17.065,5.032a2.032,2.032,0,1,0-2.032,2.032A2.035,2.035,0,0,0,17.065,5.032Zm-2.032.677a.677.677,0,1,1,.677-.677A.678.678,0,0,1,15.032,5.71Z" transform="translate(-3.871 -0.645)"/><path class="b" d="M25.065,5.032a2.032,2.032,0,1,0-2.032,2.032A2.035,2.035,0,0,0,25.065,5.032Zm-2.032.677a.677.677,0,1,1,.677-.677A.678.678,0,0,1,23.032,5.71Z" transform="translate(-6.452 -0.645)"/><path class="b" d="M26.065,1H1.677A.677.677,0,0,0,1,1.677V42.323A.677.677,0,0,0,1.677,43h2.71a.677.677,0,0,0,.677-.677V7.774H22.677V42.323a.677.677,0,0,0,.677.677h2.71a.677.677,0,0,0,.677-.677V1.677A.677.677,0,0,0,26.065,1ZM3.71,41.645H2.355V7.774H3.71ZM11.161,6.419H2.355V2.355H25.387V6.419H11.161ZM25.387,41.645H24.032V7.774h1.355Z"/><path class="b" d="M55.39,8.472,50.484,7.245V3.032a2.032,2.032,0,0,0-4.065,0V7.245L41.513,8.472A.677.677,0,0,0,41,9.129v1.355a.677.677,0,0,0,.677.677h4.742v.4l-1.834,1.834a.676.676,0,0,0-.2.479v1.355a.678.678,0,0,0,.929.629L48.452,14.6l3.136,1.255a.679.679,0,0,0,.631-.068.678.678,0,0,0,.3-.561V13.871a.676.676,0,0,0-.2-.479l-1.834-1.834v-.4h4.742a.677.677,0,0,0,.677-.677V9.129A.677.677,0,0,0,55.39,8.472Zm-.841,1.335H49.806a.677.677,0,0,0-.677.677v1.355a.676.676,0,0,0,.2.479l1.834,1.834v.074L48.7,13.242a.681.681,0,0,0-.5,0l-2.458.984v-.074l1.834-1.834a.676.676,0,0,0,.2-.479V10.484a.677.677,0,0,0-.677-.677H42.355V9.658l4.906-1.227a.677.677,0,0,0,.513-.657V3.032a.677.677,0,0,1,1.355,0V7.774a.677.677,0,0,0,.513.657l4.906,1.227Z" transform="translate(-12.903)"/><path class="b" d="M51.806,39.129h-.677V32.355h1.355V31H44.355v1.355H45.71v6.774h-.677A2.035,2.035,0,0,0,43,41.161v9.484a2.035,2.035,0,0,0,2.032,2.032h6.774a2.035,2.035,0,0,0,2.032-2.032V41.161A2.035,2.035,0,0,0,51.806,39.129Zm.677,2.032v.677H51.129V40.484h.677A.678.678,0,0,1,52.484,41.161Zm-2.71,8.806v1.355h-2.71V49.968a1.356,1.356,0,0,0-1.355-1.355H44.355V43.194H45.71a1.356,1.356,0,0,0,1.355-1.355V40.484h2.71v1.355a1.356,1.356,0,0,0,1.355,1.355h1.355v5.419H51.129A1.356,1.356,0,0,0,49.774,49.968Zm-2.71-17.613h2.71v6.774h-2.71Zm-2.032,8.129h.677v1.355H44.355v-.677A.678.678,0,0,1,45.032,40.484Zm-.677,10.161v-.677H45.71v1.355h-.677A.678.678,0,0,1,44.355,50.645Zm7.452.677h-.677V49.968h1.355v.677A.678.678,0,0,1,51.806,51.323Z" transform="translate(-13.548 -9.677)"/></g></svg>